<?xml version="1.0" encoding="utf-8"?>
<!-- Generator: Adobe Illustrator 22.1.0, SVG Export Plug-In . SVG Version: 6.00 Build 0)  -->
<svg version="1.1" id="Layer_1" xmlns="http://www.w3.org/2000/svg" xmlns:xlink="http://www.w3.org/1999/xlink" x="0px" y="0px"
	 viewBox="0 0 88 39" style="enable-background:new 0 0 88 39;" xml:space="preserve">
<style type="text/css">
	.st0{fill:#FFECB3;}
	.st1{fill:#FFD54F;}
	.st2{fill:#FFCA28;}
</style>
<path class="st0" d="M25.7,25.5c0,6.4-5.2,11.7-11.7,11.7S2.3,31.9,2.3,25.5S14,1.8,14,1.8S25.7,19.1,25.7,25.5z"/>
<path class="st1" d="M55.7,25.5c0,6.4-5.2,11.7-11.7,11.7s-11.7-5.2-11.7-11.7S44,1.8,44,1.8S55.7,19.1,55.7,25.5z"/>
<path class="st2" d="M85.7,25.5c0,6.4-5.2,11.7-11.7,11.7s-11.7-5.2-11.7-11.7S74,1.8,74,1.8S85.7,19.1,85.7,25.5z"/>
</svg>
