<?xml version="1.0" encoding="utf-8"?>
<!-- Generator: Adobe Illustrator 22.1.0, SVG Export Plug-In . SVG Version: 6.00 Build 0)  -->
<svg version="1.1" id="Layer_1" xmlns="http://www.w3.org/2000/svg" xmlns:xlink="http://www.w3.org/1999/xlink" x="0px" y="0px"
	 viewBox="0 0 177 177" style="enable-background:new 0 0 177 177;" xml:space="preserve">
<style type="text/css">
	.st0{fill:#FFD54F;}
</style>
<path class="st0" d="M176.1,96.2c-0.9,7.9-5.8,11-13.5,9c-18.6-4.9-37.1-9.8-55.6-14.8c-1.4-0.4-2.7-1-5.2-1.9
	c2.4-0.8,3.6-1.3,4.8-1.6c18.3-4.9,36.7-9.8,55.1-14.6c9-2.4,13.9,0.9,14.7,10.1C176.6,86.9,176.6,91.6,176.1,96.2z M164,65
	c-1.4,0.7-2.9,1.1-4.4,1.5c-18,4.8-35.9,9.6-53.9,14.3c-1.4,0.4-2.9,0.6-5.6,1.1c1.9-2.2,3-3.5,4.1-4.7
	c13.1-13.1,26.3-26.2,39.5-39.4c0.7-0.7,1.3-1.4,2.1-2c4.2-3.5,9.8-3.6,12.9,0.7c4,5.4,7.3,11.3,10.2,17.4
	C170.9,58.2,168.4,62.9,164,65z M138.5,34.3C125.6,47.2,112.8,60,99.9,72.8c-1.3,1.3-2.7,2.5-4.1,3.8c-0.3-0.2-0.6-0.3-0.8-0.5
	c1.1-4.2,2.3-8.5,3.4-12.7c4-14.9,8-29.8,12-44.7c0.4-1.7,0.8-3.4,1.5-5c2.1-4.7,6.6-6.9,11.5-5.3c6.5,2.1,12.4,5.5,17.4,10.1
	c4.1,3.7,4.1,8.6,0.5,12.9C140.4,32.5,139.4,33.4,138.5,34.3z M100.7,31.1C97.3,44,93.8,56.8,90.3,69.6c-0.4,1.6-1,3.1-1.8,5.6
	c-0.8-1.9-1.3-2.9-1.6-4c-5.1-18.8-10.1-37.6-15.2-56.3c-0.2-0.6-0.3-1.1-0.4-1.7C70.2,7.3,73,2.6,78.9,1.7c5.5-0.8,11.2-1,16.7-0.5
	C104,2,107.1,6.9,105.1,15C103.7,20.4,102.2,25.8,100.7,31.1z M81.7,75.6c-0.3,0.2-0.6,0.5-1,0.7c-0.8-0.7-1.7-1.4-2.5-2.2
	c-13.7-13.6-27.4-27.3-41.1-41c-1.1-1.1-2.2-2.2-2.9-3.6c-2.3-3.9-1.4-9,2.7-11.8c4.9-3.4,10.1-6.5,15.5-8.9
	c5.9-2.7,11.2,0.2,13.1,6.5c2,6.8,3.8,13.8,5.6,20.7C74.7,49.2,78.2,62.4,81.7,75.6z M65,69.6c2.9,2.9,5.8,5.7,8.6,8.6
	c0.9,0.9,1.6,2,2.9,3.6c-2.1-0.4-3.5-0.5-4.7-0.8c-18.3-4.9-36.6-9.7-55-14.6c-9-2.4-11.6-7.7-7.6-16c1.7-3.6,3.8-7.2,6-10.5
	c5.6-8.1,11.1-8.6,18.1-1.7C43.9,48.5,54.5,59.1,65,69.6z M12.8,71.6c20.4,5.3,40.7,10.8,61,16.3c0,0.4,0.1,0.8,0.1,1.1
	c-1.4,0.5-2.8,1.1-4.2,1.4c-18.3,4.9-36.6,9.8-54.9,14.6c-8.6,2.3-13.5-1-14.1-9.9c-0.3-5-0.3-10,0.1-15C1.5,73.8,6.8,70,12.8,71.6z
	 M14.5,111.6c20-5.5,40-10.7,60-16c0.3-0.1,0.8,0.1,2.4,0.2c-4.2,4.1-7.6,7.4-11,10.8C55,117.5,44,128.4,33,139.3
	c-6.5,6.5-12,6.1-17.2-1.4c-2.8-4.1-5.3-8.5-7.3-13.1C5.8,118.7,8.2,113.4,14.5,111.6z M79.9,100.1c0.6,0.4,1.3,0.8,1.9,1.1
	c-1,3.7-2,7.4-3,11.1c-4.2,15.7-8.4,31.3-12.6,47c-0.4,1.5-0.8,3-1.4,4.4c-2.1,4.4-6.4,6.6-11,5.1c-6.5-2-12.4-5.5-17.6-10
	c-4-3.5-4.4-9.1-0.7-13C50.1,130.5,65,115.4,79.9,100.1z M79.8,132.4c2.3-8.7,4.7-17.5,7.1-26.2c0.3-1.1,0.7-2.1,1.1-3.2
	c0.4,0,0.7-0.1,1.1-0.1c0.9,3.3,1.8,6.6,2.7,10c4.3,15.8,8.5,31.6,12.7,47.4c0.3,1.3,0.8,2.6,1,3.9c0.9,6-1.8,10.6-7.9,11.3
	c-5.9,0.7-12,0.7-17.8,0.1c-6.9-0.7-9.9-5.6-8.2-12.4C74.2,152.9,77,142.7,79.8,132.4z M94.9,99.8c2.1,1.9,3.4,2.9,4.6,4.1
	c13.2,13.1,26.3,26.2,39.4,39.3c0.8,0.8,1.7,1.6,2.4,2.5c3.7,4.6,3.7,9.8-1,13.3c-5.1,3.7-10.7,7-16.5,9.5
	c-5.4,2.4-10.4-0.4-12.4-6.1c-1.2-3.5-2-7.1-2.9-10.6c-4.2-15.5-8.3-30.9-12.5-46.4C95.7,104,95.5,102.5,94.9,99.8z M101.9,97.6
	c-0.4-0.4-0.5-1-1-2.1c1.9,0.3,3.4,0.5,4.7,0.8c18.1,4.8,36.3,9.6,54.4,14.5c1.3,0.3,2.6,0.7,3.8,1.3c4.6,2.2,7,6.9,4.9,11.5
	c-2.5,5.6-5.5,11.1-9.1,16c-3.9,5.4-9.7,5.6-14.5,0.9C130.6,126.4,116.3,111.9,101.9,97.6z"/>
</svg>
