<?xml version="1.0" encoding="utf-8"?>
<!-- Generator: Adobe Illustrator 22.1.0, SVG Export Plug-In . SVG Version: 6.00 Build 0)  -->
<svg version="1.1" xmlns="http://www.w3.org/2000/svg" xmlns:xlink="http://www.w3.org/1999/xlink" x="0px" y="0px"
	 viewBox="0 0 141.7 63.3" style="enable-background:new 0 0 141.7 63.3;" xml:space="preserve">
<style type="text/css">
	.st0{fill:#FFD54F;}
	.st1{fill:none;}
</style>
<g id="Layer_1">
	<path class="st0" d="M82.5,49.3c0,6.4-5.2,11.7-11.7,11.7s-11.7-5.2-11.7-11.7s11.7-23.7,11.7-23.7S82.5,42.9,82.5,49.3z"/>
	<path class="st0" d="M115.2,47.6c0,4.6-3.7,8.3-8.3,8.3c-4.6,0-8.3-3.7-8.3-8.3s8.3-16.9,8.3-16.9S115.2,43,115.2,47.6z"/>
	<path class="st0" d="M43.2,47.6c0,4.6-3.7,8.3-8.3,8.3s-8.3-3.7-8.3-8.3s8.3-16.9,8.3-16.9S43.2,43,43.2,47.6z"/>
</g>
<g id="Layer_2">
	<path id="SVGID_x5F_1_x5F_" class="st1" d="M3,30.7c23.4-23.4,108.1-23.9,132,0"/>
	<text>	<textPath  xlink:href="#SVGID_x5F_1_x5F_" startOffset="4.1992%">
<tspan  style="font-family:'Lato-Regular'; font-size:14px;">MASTER THE ACT OF</tspan>	</textPath>
</text>
</g>
</svg>
