<?xml version="1.0" encoding="utf-8"?>
<!-- Generator: Adobe Illustrator 22.1.0, SVG Export Plug-In . SVG Version: 6.00 Build 0)  -->
<svg version="1.1" xmlns="http://www.w3.org/2000/svg" xmlns:xlink="http://www.w3.org/1999/xlink" x="0px" y="0px"
	 viewBox="0 0 184 64" style="enable-background:new 0 0 184 64;" xml:space="preserve">
<style type="text/css">
	.st0{fill:#FFD54F;}
	.st1{fill:none;}
</style>
<g id="Layer_1">
	<path class="st0" d="M100.6,49.4c0,4.7-3.8,8.6-8.6,8.6s-8.6-3.8-8.6-8.6S92,32,92,32S100.6,44.7,100.6,49.4z"/>
	<path class="st0" d="M124.6,48.1c0,3.4-2.7,6.1-6.1,6.1c-3.4,0-6.1-2.7-6.1-6.1s6.1-12.4,6.1-12.4S124.6,44.7,124.6,48.1z"/>
	<path class="st0" d="M71.7,48.1c0,3.4-2.7,6.1-6.1,6.1c-3.4,0-6.1-2.7-6.1-6.1s6.1-12.4,6.1-12.4S71.7,44.7,71.7,48.1z"/>
</g>
<g id="Layer_2">
	<path id="SVGID_x5F_1_x5F_" class="st1" d="M9.6,39.6c28.1-28.1,130.1-28.7,158.8,0"/>
	<text>	<textPath  xlink:href="#SVGID_x5F_1_x5F_" startOffset="1.147%">
<tspan  style="font-family:'Lato-Regular'; font-size:16px;">MASTER THE ART OF</tspan>	</textPath>
</text>
</g>
</svg>
