<?xml version="1.0" encoding="utf-8"?>
<!-- Generator: Adobe Illustrator 22.1.0, SVG Export Plug-In . SVG Version: 6.00 Build 0)  -->
<svg version="1.1" id="Layer_1" xmlns="http://www.w3.org/2000/svg" xmlns:xlink="http://www.w3.org/1999/xlink" x="0px" y="0px"
	 viewBox="0 0 93 40" style="enable-background:new 0 0 93 40;" xml:space="preserve">
<style type="text/css">
	.st0{fill:#FFD54F;}
</style>
<path class="st0" d="M58.2,26c0,6.4-5.2,11.7-11.7,11.7S34.8,32.4,34.8,26S46.5,2.3,46.5,2.3S58.2,19.6,58.2,26z"/>
<path class="st0" d="M90.8,24.3c0,4.6-3.7,8.3-8.3,8.3s-8.3-3.7-8.3-8.3s8.3-16.9,8.3-16.9S90.8,19.7,90.8,24.3z"/>
<path class="st0" d="M18.8,24.3c0,4.6-3.7,8.3-8.3,8.3s-8.3-3.7-8.3-8.3s8.3-16.9,8.3-16.9S18.8,19.7,18.8,24.3z"/>
</svg>
